M48
; DRILL file {KiCad 9.0.6} date 2025-12-25T11:48:04+0100
; FORMAT={-:-/ absolute / metric / decimal}
; #@! TF.CreationDate,2025-12-25T11:48:04+01:00
; #@! TF.GenerationSoftware,Kicad,Pcbnew,9.0.6
; #@! TF.FileFunction,Plated,1,2,PTH
FMAT,2
METRIC
; #@! TA.AperFunction,Plated,PTH,ComponentDrill
T1C0.800
; #@! TA.AperFunction,Plated,PTH,ComponentDrill
T2C1.000
; #@! TA.AperFunction,Plated,PTH,ComponentDrill
T3C1.016
; #@! TA.AperFunction,Plated,PTH,ComponentDrill
T4C2.500
%
G90
G05
T1
X86.19Y-58.5
X86.19Y-61.5
X86.19Y-64.5
X86.19Y-67.5
X93.81Y-58.5
X93.81Y-61.5
X93.81Y-64.5
X93.81Y-67.5
X104.0Y-53.38
X104.0Y-61.0
T2
X83.0Y-46.96
X83.0Y-49.5
X83.0Y-52.96
X83.0Y-55.5
X83.0Y-59.0
X83.0Y-61.54
X83.0Y-65.0
X83.0Y-67.54
X89.46Y-25.5
X92.0Y-25.5
X95.5Y-25.5
X98.04Y-25.5
X100.385Y-51.735
X100.385Y-54.275
X109.53Y-52.46
X109.53Y-55.96
X114.0Y-25.92
X114.0Y-28.46
X114.0Y-31.0
X114.0Y-34.42
X114.0Y-36.96
X114.0Y-39.5
X117.615Y-25.725
X117.615Y-28.265
X117.615Y-31.69
X117.615Y-34.23
X117.615Y-36.77
X117.615Y-39.31
X123.5Y-47.81
X123.5Y-50.35
X123.5Y-52.89
X123.5Y-55.43
X123.5Y-57.97
X123.5Y-60.51
T3
X54.29Y-22.134
X56.83Y-22.134
X59.37Y-22.134
X61.91Y-22.134
X63.434Y-70.394
X64.45Y-22.134
X65.974Y-70.394
X66.99Y-22.134
X68.514Y-70.394
X69.53Y-22.134
X71.054Y-70.394
X72.07Y-22.134
X73.594Y-70.394
X74.61Y-22.134
X76.134Y-70.394
X77.15Y-22.134
X78.674Y-70.394
X81.214Y-22.134
X81.214Y-70.394
X83.754Y-22.134
X86.294Y-22.134
X86.294Y-70.394
X88.834Y-22.134
X88.834Y-70.394
X91.374Y-22.134
X91.374Y-70.394
X93.914Y-22.134
X93.914Y-70.394
X96.454Y-22.134
X96.454Y-70.394
X98.994Y-22.134
X98.994Y-70.394
X99.121Y-42.454
X99.121Y-44.994
X99.121Y-47.534
X101.534Y-70.394
X101.661Y-42.454
X101.661Y-44.994
X101.661Y-47.534
X104.074Y-22.134
X104.074Y-70.394
X106.614Y-22.134
X109.154Y-22.134
X109.154Y-70.394
X111.694Y-22.134
X111.694Y-70.394
X114.234Y-22.134
X114.234Y-70.394
X116.774Y-22.134
X116.774Y-70.394
X119.314Y-22.134
X119.314Y-70.394
X121.854Y-22.134
X121.854Y-70.394
X124.394Y-70.394
X126.934Y-70.394
X129.474Y-22.134
X129.474Y-24.674
X129.474Y-27.214
X129.474Y-29.754
X129.474Y-32.294
X129.474Y-34.834
X129.474Y-37.374
X129.474Y-39.914
X129.474Y-42.454
X129.474Y-44.994
X129.474Y-47.534
X129.474Y-50.074
X129.474Y-52.614
X129.474Y-55.154
X129.474Y-57.694
X129.474Y-60.234
X129.474Y-62.774
X129.474Y-65.314
X132.014Y-22.134
X132.014Y-24.674
X132.014Y-27.214
X132.014Y-29.754
X132.014Y-32.294
X132.014Y-34.834
X132.014Y-37.374
X132.014Y-39.914
X132.014Y-42.454
X132.014Y-44.994
X132.014Y-47.534
X132.014Y-50.074
X132.014Y-52.614
X132.014Y-55.154
X132.014Y-57.694
X132.014Y-60.234
X132.014Y-62.774
X132.014Y-65.314
T4
X108.26Y-44.0
X108.26Y-64.32
X123.5Y-44.0
X123.5Y-64.32
M30
