%TF.GenerationSoftware,KiCad,Pcbnew,9.0.6*%
%TF.CreationDate,2025-12-25T11:47:57+01:00*%
%TF.ProjectId,pws pcb,70777320-7063-4622-9e6b-696361645f70,rev?*%
%TF.SameCoordinates,Original*%
%TF.FileFunction,Legend,Top*%
%TF.FilePolarity,Positive*%
%FSLAX46Y46*%
G04 Gerber Fmt 4.6, Leading zero omitted, Abs format (unit mm)*
G04 Created by KiCad (PCBNEW 9.0.6) date 2025-12-25 11:47:57*
%MOMM*%
%LPD*%
G01*
G04 APERTURE LIST*
%ADD10C,0.150000*%
%ADD11C,0.120000*%
%ADD12C,0.127000*%
%ADD13C,0.200000*%
G04 APERTURE END LIST*
D10*
X78448333Y-64264819D02*
X78115000Y-63788628D01*
X77876905Y-64264819D02*
X77876905Y-63264819D01*
X77876905Y-63264819D02*
X78257857Y-63264819D01*
X78257857Y-63264819D02*
X78353095Y-63312438D01*
X78353095Y-63312438D02*
X78400714Y-63360057D01*
X78400714Y-63360057D02*
X78448333Y-63455295D01*
X78448333Y-63455295D02*
X78448333Y-63598152D01*
X78448333Y-63598152D02*
X78400714Y-63693390D01*
X78400714Y-63693390D02*
X78353095Y-63741009D01*
X78353095Y-63741009D02*
X78257857Y-63788628D01*
X78257857Y-63788628D02*
X77876905Y-63788628D01*
X79305476Y-63264819D02*
X79115000Y-63264819D01*
X79115000Y-63264819D02*
X79019762Y-63312438D01*
X79019762Y-63312438D02*
X78972143Y-63360057D01*
X78972143Y-63360057D02*
X78876905Y-63502914D01*
X78876905Y-63502914D02*
X78829286Y-63693390D01*
X78829286Y-63693390D02*
X78829286Y-64074342D01*
X78829286Y-64074342D02*
X78876905Y-64169580D01*
X78876905Y-64169580D02*
X78924524Y-64217200D01*
X78924524Y-64217200D02*
X79019762Y-64264819D01*
X79019762Y-64264819D02*
X79210238Y-64264819D01*
X79210238Y-64264819D02*
X79305476Y-64217200D01*
X79305476Y-64217200D02*
X79353095Y-64169580D01*
X79353095Y-64169580D02*
X79400714Y-64074342D01*
X79400714Y-64074342D02*
X79400714Y-63836247D01*
X79400714Y-63836247D02*
X79353095Y-63741009D01*
X79353095Y-63741009D02*
X79305476Y-63693390D01*
X79305476Y-63693390D02*
X79210238Y-63645771D01*
X79210238Y-63645771D02*
X79019762Y-63645771D01*
X79019762Y-63645771D02*
X78924524Y-63693390D01*
X78924524Y-63693390D02*
X78876905Y-63741009D01*
X78876905Y-63741009D02*
X78829286Y-63836247D01*
X108805476Y-33724819D02*
X108805476Y-32724819D01*
X108805476Y-32724819D02*
X109138809Y-33439104D01*
X109138809Y-33439104D02*
X109472142Y-32724819D01*
X109472142Y-32724819D02*
X109472142Y-33724819D01*
X109900714Y-32820057D02*
X109948333Y-32772438D01*
X109948333Y-32772438D02*
X110043571Y-32724819D01*
X110043571Y-32724819D02*
X110281666Y-32724819D01*
X110281666Y-32724819D02*
X110376904Y-32772438D01*
X110376904Y-32772438D02*
X110424523Y-32820057D01*
X110424523Y-32820057D02*
X110472142Y-32915295D01*
X110472142Y-32915295D02*
X110472142Y-33010533D01*
X110472142Y-33010533D02*
X110424523Y-33153390D01*
X110424523Y-33153390D02*
X109853095Y-33724819D01*
X109853095Y-33724819D02*
X110472142Y-33724819D01*
X78448333Y-70264819D02*
X78115000Y-69788628D01*
X77876905Y-70264819D02*
X77876905Y-69264819D01*
X77876905Y-69264819D02*
X78257857Y-69264819D01*
X78257857Y-69264819D02*
X78353095Y-69312438D01*
X78353095Y-69312438D02*
X78400714Y-69360057D01*
X78400714Y-69360057D02*
X78448333Y-69455295D01*
X78448333Y-69455295D02*
X78448333Y-69598152D01*
X78448333Y-69598152D02*
X78400714Y-69693390D01*
X78400714Y-69693390D02*
X78353095Y-69741009D01*
X78353095Y-69741009D02*
X78257857Y-69788628D01*
X78257857Y-69788628D02*
X77876905Y-69788628D01*
X79019762Y-69693390D02*
X78924524Y-69645771D01*
X78924524Y-69645771D02*
X78876905Y-69598152D01*
X78876905Y-69598152D02*
X78829286Y-69502914D01*
X78829286Y-69502914D02*
X78829286Y-69455295D01*
X78829286Y-69455295D02*
X78876905Y-69360057D01*
X78876905Y-69360057D02*
X78924524Y-69312438D01*
X78924524Y-69312438D02*
X79019762Y-69264819D01*
X79019762Y-69264819D02*
X79210238Y-69264819D01*
X79210238Y-69264819D02*
X79305476Y-69312438D01*
X79305476Y-69312438D02*
X79353095Y-69360057D01*
X79353095Y-69360057D02*
X79400714Y-69455295D01*
X79400714Y-69455295D02*
X79400714Y-69502914D01*
X79400714Y-69502914D02*
X79353095Y-69598152D01*
X79353095Y-69598152D02*
X79305476Y-69645771D01*
X79305476Y-69645771D02*
X79210238Y-69693390D01*
X79210238Y-69693390D02*
X79019762Y-69693390D01*
X79019762Y-69693390D02*
X78924524Y-69741009D01*
X78924524Y-69741009D02*
X78876905Y-69788628D01*
X78876905Y-69788628D02*
X78829286Y-69883866D01*
X78829286Y-69883866D02*
X78829286Y-70074342D01*
X78829286Y-70074342D02*
X78876905Y-70169580D01*
X78876905Y-70169580D02*
X78924524Y-70217200D01*
X78924524Y-70217200D02*
X79019762Y-70264819D01*
X79019762Y-70264819D02*
X79210238Y-70264819D01*
X79210238Y-70264819D02*
X79305476Y-70217200D01*
X79305476Y-70217200D02*
X79353095Y-70169580D01*
X79353095Y-70169580D02*
X79400714Y-70074342D01*
X79400714Y-70074342D02*
X79400714Y-69883866D01*
X79400714Y-69883866D02*
X79353095Y-69788628D01*
X79353095Y-69788628D02*
X79305476Y-69741009D01*
X79305476Y-69741009D02*
X79210238Y-69693390D01*
X102084819Y-57356666D02*
X101608628Y-57689999D01*
X102084819Y-57928094D02*
X101084819Y-57928094D01*
X101084819Y-57928094D02*
X101084819Y-57547142D01*
X101084819Y-57547142D02*
X101132438Y-57451904D01*
X101132438Y-57451904D02*
X101180057Y-57404285D01*
X101180057Y-57404285D02*
X101275295Y-57356666D01*
X101275295Y-57356666D02*
X101418152Y-57356666D01*
X101418152Y-57356666D02*
X101513390Y-57404285D01*
X101513390Y-57404285D02*
X101561009Y-57451904D01*
X101561009Y-57451904D02*
X101608628Y-57547142D01*
X101608628Y-57547142D02*
X101608628Y-57928094D01*
X102084819Y-56404285D02*
X102084819Y-56975713D01*
X102084819Y-56689999D02*
X101084819Y-56689999D01*
X101084819Y-56689999D02*
X101227676Y-56785237D01*
X101227676Y-56785237D02*
X101322914Y-56880475D01*
X101322914Y-56880475D02*
X101370533Y-56975713D01*
X100717200Y-31218332D02*
X100764819Y-31075475D01*
X100764819Y-31075475D02*
X100764819Y-30837380D01*
X100764819Y-30837380D02*
X100717200Y-30742142D01*
X100717200Y-30742142D02*
X100669580Y-30694523D01*
X100669580Y-30694523D02*
X100574342Y-30646904D01*
X100574342Y-30646904D02*
X100479104Y-30646904D01*
X100479104Y-30646904D02*
X100383866Y-30694523D01*
X100383866Y-30694523D02*
X100336247Y-30742142D01*
X100336247Y-30742142D02*
X100288628Y-30837380D01*
X100288628Y-30837380D02*
X100241009Y-31027856D01*
X100241009Y-31027856D02*
X100193390Y-31123094D01*
X100193390Y-31123094D02*
X100145771Y-31170713D01*
X100145771Y-31170713D02*
X100050533Y-31218332D01*
X100050533Y-31218332D02*
X99955295Y-31218332D01*
X99955295Y-31218332D02*
X99860057Y-31170713D01*
X99860057Y-31170713D02*
X99812438Y-31123094D01*
X99812438Y-31123094D02*
X99764819Y-31027856D01*
X99764819Y-31027856D02*
X99764819Y-30789761D01*
X99764819Y-30789761D02*
X99812438Y-30646904D01*
X99764819Y-30313570D02*
X100764819Y-30075475D01*
X100764819Y-30075475D02*
X100050533Y-29884999D01*
X100050533Y-29884999D02*
X100764819Y-29694523D01*
X100764819Y-29694523D02*
X99764819Y-29456428D01*
X100764819Y-28551666D02*
X100764819Y-29123094D01*
X100764819Y-28837380D02*
X99764819Y-28837380D01*
X99764819Y-28837380D02*
X99907676Y-28932618D01*
X99907676Y-28932618D02*
X100002914Y-29027856D01*
X100002914Y-29027856D02*
X100050533Y-29123094D01*
X97978000Y-41289817D02*
X98025619Y-41337437D01*
X98025619Y-41337437D02*
X97978000Y-41385056D01*
X97978000Y-41385056D02*
X97930381Y-41337437D01*
X97930381Y-41337437D02*
X97978000Y-41289817D01*
X97978000Y-41289817D02*
X97978000Y-41385056D01*
X98255905Y-24494056D02*
X98255905Y-23494056D01*
X98255905Y-23494056D02*
X98494000Y-23494056D01*
X98494000Y-23494056D02*
X98636857Y-23541675D01*
X98636857Y-23541675D02*
X98732095Y-23636913D01*
X98732095Y-23636913D02*
X98779714Y-23732151D01*
X98779714Y-23732151D02*
X98827333Y-23922627D01*
X98827333Y-23922627D02*
X98827333Y-24065484D01*
X98827333Y-24065484D02*
X98779714Y-24255960D01*
X98779714Y-24255960D02*
X98732095Y-24351198D01*
X98732095Y-24351198D02*
X98636857Y-24446437D01*
X98636857Y-24446437D02*
X98494000Y-24494056D01*
X98494000Y-24494056D02*
X98255905Y-24494056D01*
X99446381Y-23494056D02*
X99541619Y-23494056D01*
X99541619Y-23494056D02*
X99636857Y-23541675D01*
X99636857Y-23541675D02*
X99684476Y-23589294D01*
X99684476Y-23589294D02*
X99732095Y-23684532D01*
X99732095Y-23684532D02*
X99779714Y-23875008D01*
X99779714Y-23875008D02*
X99779714Y-24113103D01*
X99779714Y-24113103D02*
X99732095Y-24303579D01*
X99732095Y-24303579D02*
X99684476Y-24398817D01*
X99684476Y-24398817D02*
X99636857Y-24446437D01*
X99636857Y-24446437D02*
X99541619Y-24494056D01*
X99541619Y-24494056D02*
X99446381Y-24494056D01*
X99446381Y-24494056D02*
X99351143Y-24446437D01*
X99351143Y-24446437D02*
X99303524Y-24398817D01*
X99303524Y-24398817D02*
X99255905Y-24303579D01*
X99255905Y-24303579D02*
X99208286Y-24113103D01*
X99208286Y-24113103D02*
X99208286Y-23875008D01*
X99208286Y-23875008D02*
X99255905Y-23684532D01*
X99255905Y-23684532D02*
X99303524Y-23589294D01*
X99303524Y-23589294D02*
X99351143Y-23541675D01*
X99351143Y-23541675D02*
X99446381Y-23494056D01*
X89833333Y-56584819D02*
X89500000Y-56108628D01*
X89261905Y-56584819D02*
X89261905Y-55584819D01*
X89261905Y-55584819D02*
X89642857Y-55584819D01*
X89642857Y-55584819D02*
X89738095Y-55632438D01*
X89738095Y-55632438D02*
X89785714Y-55680057D01*
X89785714Y-55680057D02*
X89833333Y-55775295D01*
X89833333Y-55775295D02*
X89833333Y-55918152D01*
X89833333Y-55918152D02*
X89785714Y-56013390D01*
X89785714Y-56013390D02*
X89738095Y-56061009D01*
X89738095Y-56061009D02*
X89642857Y-56108628D01*
X89642857Y-56108628D02*
X89261905Y-56108628D01*
X90166667Y-55584819D02*
X90785714Y-55584819D01*
X90785714Y-55584819D02*
X90452381Y-55965771D01*
X90452381Y-55965771D02*
X90595238Y-55965771D01*
X90595238Y-55965771D02*
X90690476Y-56013390D01*
X90690476Y-56013390D02*
X90738095Y-56061009D01*
X90738095Y-56061009D02*
X90785714Y-56156247D01*
X90785714Y-56156247D02*
X90785714Y-56394342D01*
X90785714Y-56394342D02*
X90738095Y-56489580D01*
X90738095Y-56489580D02*
X90690476Y-56537200D01*
X90690476Y-56537200D02*
X90595238Y-56584819D01*
X90595238Y-56584819D02*
X90309524Y-56584819D01*
X90309524Y-56584819D02*
X90214286Y-56537200D01*
X90214286Y-56537200D02*
X90166667Y-56489580D01*
X78448333Y-58224819D02*
X78115000Y-57748628D01*
X77876905Y-58224819D02*
X77876905Y-57224819D01*
X77876905Y-57224819D02*
X78257857Y-57224819D01*
X78257857Y-57224819D02*
X78353095Y-57272438D01*
X78353095Y-57272438D02*
X78400714Y-57320057D01*
X78400714Y-57320057D02*
X78448333Y-57415295D01*
X78448333Y-57415295D02*
X78448333Y-57558152D01*
X78448333Y-57558152D02*
X78400714Y-57653390D01*
X78400714Y-57653390D02*
X78353095Y-57701009D01*
X78353095Y-57701009D02*
X78257857Y-57748628D01*
X78257857Y-57748628D02*
X77876905Y-57748628D01*
X79305476Y-57558152D02*
X79305476Y-58224819D01*
X79067381Y-57177200D02*
X78829286Y-57891485D01*
X78829286Y-57891485D02*
X79448333Y-57891485D01*
X89833333Y-65584819D02*
X89500000Y-65108628D01*
X89261905Y-65584819D02*
X89261905Y-64584819D01*
X89261905Y-64584819D02*
X89642857Y-64584819D01*
X89642857Y-64584819D02*
X89738095Y-64632438D01*
X89738095Y-64632438D02*
X89785714Y-64680057D01*
X89785714Y-64680057D02*
X89833333Y-64775295D01*
X89833333Y-64775295D02*
X89833333Y-64918152D01*
X89833333Y-64918152D02*
X89785714Y-65013390D01*
X89785714Y-65013390D02*
X89738095Y-65061009D01*
X89738095Y-65061009D02*
X89642857Y-65108628D01*
X89642857Y-65108628D02*
X89261905Y-65108628D01*
X90309524Y-65584819D02*
X90500000Y-65584819D01*
X90500000Y-65584819D02*
X90595238Y-65537200D01*
X90595238Y-65537200D02*
X90642857Y-65489580D01*
X90642857Y-65489580D02*
X90738095Y-65346723D01*
X90738095Y-65346723D02*
X90785714Y-65156247D01*
X90785714Y-65156247D02*
X90785714Y-64775295D01*
X90785714Y-64775295D02*
X90738095Y-64680057D01*
X90738095Y-64680057D02*
X90690476Y-64632438D01*
X90690476Y-64632438D02*
X90595238Y-64584819D01*
X90595238Y-64584819D02*
X90404762Y-64584819D01*
X90404762Y-64584819D02*
X90309524Y-64632438D01*
X90309524Y-64632438D02*
X90261905Y-64680057D01*
X90261905Y-64680057D02*
X90214286Y-64775295D01*
X90214286Y-64775295D02*
X90214286Y-65013390D01*
X90214286Y-65013390D02*
X90261905Y-65108628D01*
X90261905Y-65108628D02*
X90309524Y-65156247D01*
X90309524Y-65156247D02*
X90404762Y-65203866D01*
X90404762Y-65203866D02*
X90595238Y-65203866D01*
X90595238Y-65203866D02*
X90690476Y-65156247D01*
X90690476Y-65156247D02*
X90738095Y-65108628D01*
X90738095Y-65108628D02*
X90785714Y-65013390D01*
X121214285Y-23386009D02*
X121357142Y-23433628D01*
X121357142Y-23433628D02*
X121404761Y-23481247D01*
X121404761Y-23481247D02*
X121452380Y-23576485D01*
X121452380Y-23576485D02*
X121452380Y-23719342D01*
X121452380Y-23719342D02*
X121404761Y-23814580D01*
X121404761Y-23814580D02*
X121357142Y-23862200D01*
X121357142Y-23862200D02*
X121261904Y-23909819D01*
X121261904Y-23909819D02*
X120880952Y-23909819D01*
X120880952Y-23909819D02*
X120880952Y-22909819D01*
X120880952Y-22909819D02*
X121214285Y-22909819D01*
X121214285Y-22909819D02*
X121309523Y-22957438D01*
X121309523Y-22957438D02*
X121357142Y-23005057D01*
X121357142Y-23005057D02*
X121404761Y-23100295D01*
X121404761Y-23100295D02*
X121404761Y-23195533D01*
X121404761Y-23195533D02*
X121357142Y-23290771D01*
X121357142Y-23290771D02*
X121309523Y-23338390D01*
X121309523Y-23338390D02*
X121214285Y-23386009D01*
X121214285Y-23386009D02*
X120880952Y-23386009D01*
X121738095Y-22909819D02*
X122309523Y-22909819D01*
X122023809Y-23909819D02*
X122023809Y-22909819D01*
X123166666Y-23909819D02*
X122595238Y-23909819D01*
X122880952Y-23909819D02*
X122880952Y-22909819D01*
X122880952Y-22909819D02*
X122785714Y-23052676D01*
X122785714Y-23052676D02*
X122690476Y-23147914D01*
X122690476Y-23147914D02*
X122595238Y-23195533D01*
X89833333Y-59584819D02*
X89500000Y-59108628D01*
X89261905Y-59584819D02*
X89261905Y-58584819D01*
X89261905Y-58584819D02*
X89642857Y-58584819D01*
X89642857Y-58584819D02*
X89738095Y-58632438D01*
X89738095Y-58632438D02*
X89785714Y-58680057D01*
X89785714Y-58680057D02*
X89833333Y-58775295D01*
X89833333Y-58775295D02*
X89833333Y-58918152D01*
X89833333Y-58918152D02*
X89785714Y-59013390D01*
X89785714Y-59013390D02*
X89738095Y-59061009D01*
X89738095Y-59061009D02*
X89642857Y-59108628D01*
X89642857Y-59108628D02*
X89261905Y-59108628D01*
X90738095Y-58584819D02*
X90261905Y-58584819D01*
X90261905Y-58584819D02*
X90214286Y-59061009D01*
X90214286Y-59061009D02*
X90261905Y-59013390D01*
X90261905Y-59013390D02*
X90357143Y-58965771D01*
X90357143Y-58965771D02*
X90595238Y-58965771D01*
X90595238Y-58965771D02*
X90690476Y-59013390D01*
X90690476Y-59013390D02*
X90738095Y-59061009D01*
X90738095Y-59061009D02*
X90785714Y-59156247D01*
X90785714Y-59156247D02*
X90785714Y-59394342D01*
X90785714Y-59394342D02*
X90738095Y-59489580D01*
X90738095Y-59489580D02*
X90690476Y-59537200D01*
X90690476Y-59537200D02*
X90595238Y-59584819D01*
X90595238Y-59584819D02*
X90357143Y-59584819D01*
X90357143Y-59584819D02*
X90261905Y-59537200D01*
X90261905Y-59537200D02*
X90214286Y-59489580D01*
X108805476Y-42224819D02*
X108805476Y-41224819D01*
X108805476Y-41224819D02*
X109138809Y-41939104D01*
X109138809Y-41939104D02*
X109472142Y-41224819D01*
X109472142Y-41224819D02*
X109472142Y-42224819D01*
X110472142Y-42224819D02*
X109900714Y-42224819D01*
X110186428Y-42224819D02*
X110186428Y-41224819D01*
X110186428Y-41224819D02*
X110091190Y-41367676D01*
X110091190Y-41367676D02*
X109995952Y-41462914D01*
X109995952Y-41462914D02*
X109900714Y-41510533D01*
X94677200Y-31218332D02*
X94724819Y-31075475D01*
X94724819Y-31075475D02*
X94724819Y-30837380D01*
X94724819Y-30837380D02*
X94677200Y-30742142D01*
X94677200Y-30742142D02*
X94629580Y-30694523D01*
X94629580Y-30694523D02*
X94534342Y-30646904D01*
X94534342Y-30646904D02*
X94439104Y-30646904D01*
X94439104Y-30646904D02*
X94343866Y-30694523D01*
X94343866Y-30694523D02*
X94296247Y-30742142D01*
X94296247Y-30742142D02*
X94248628Y-30837380D01*
X94248628Y-30837380D02*
X94201009Y-31027856D01*
X94201009Y-31027856D02*
X94153390Y-31123094D01*
X94153390Y-31123094D02*
X94105771Y-31170713D01*
X94105771Y-31170713D02*
X94010533Y-31218332D01*
X94010533Y-31218332D02*
X93915295Y-31218332D01*
X93915295Y-31218332D02*
X93820057Y-31170713D01*
X93820057Y-31170713D02*
X93772438Y-31123094D01*
X93772438Y-31123094D02*
X93724819Y-31027856D01*
X93724819Y-31027856D02*
X93724819Y-30789761D01*
X93724819Y-30789761D02*
X93772438Y-30646904D01*
X93724819Y-30313570D02*
X94724819Y-30075475D01*
X94724819Y-30075475D02*
X94010533Y-29884999D01*
X94010533Y-29884999D02*
X94724819Y-29694523D01*
X94724819Y-29694523D02*
X93724819Y-29456428D01*
X93820057Y-29123094D02*
X93772438Y-29075475D01*
X93772438Y-29075475D02*
X93724819Y-28980237D01*
X93724819Y-28980237D02*
X93724819Y-28742142D01*
X93724819Y-28742142D02*
X93772438Y-28646904D01*
X93772438Y-28646904D02*
X93820057Y-28599285D01*
X93820057Y-28599285D02*
X93915295Y-28551666D01*
X93915295Y-28551666D02*
X94010533Y-28551666D01*
X94010533Y-28551666D02*
X94153390Y-28599285D01*
X94153390Y-28599285D02*
X94724819Y-29170713D01*
X94724819Y-29170713D02*
X94724819Y-28551666D01*
X94738095Y-56952200D02*
X94880952Y-56999819D01*
X94880952Y-56999819D02*
X95119047Y-56999819D01*
X95119047Y-56999819D02*
X95214285Y-56952200D01*
X95214285Y-56952200D02*
X95261904Y-56904580D01*
X95261904Y-56904580D02*
X95309523Y-56809342D01*
X95309523Y-56809342D02*
X95309523Y-56714104D01*
X95309523Y-56714104D02*
X95261904Y-56618866D01*
X95261904Y-56618866D02*
X95214285Y-56571247D01*
X95214285Y-56571247D02*
X95119047Y-56523628D01*
X95119047Y-56523628D02*
X94928571Y-56476009D01*
X94928571Y-56476009D02*
X94833333Y-56428390D01*
X94833333Y-56428390D02*
X94785714Y-56380771D01*
X94785714Y-56380771D02*
X94738095Y-56285533D01*
X94738095Y-56285533D02*
X94738095Y-56190295D01*
X94738095Y-56190295D02*
X94785714Y-56095057D01*
X94785714Y-56095057D02*
X94833333Y-56047438D01*
X94833333Y-56047438D02*
X94928571Y-55999819D01*
X94928571Y-55999819D02*
X95166666Y-55999819D01*
X95166666Y-55999819D02*
X95309523Y-56047438D01*
X96309523Y-56904580D02*
X96261904Y-56952200D01*
X96261904Y-56952200D02*
X96119047Y-56999819D01*
X96119047Y-56999819D02*
X96023809Y-56999819D01*
X96023809Y-56999819D02*
X95880952Y-56952200D01*
X95880952Y-56952200D02*
X95785714Y-56856961D01*
X95785714Y-56856961D02*
X95738095Y-56761723D01*
X95738095Y-56761723D02*
X95690476Y-56571247D01*
X95690476Y-56571247D02*
X95690476Y-56428390D01*
X95690476Y-56428390D02*
X95738095Y-56237914D01*
X95738095Y-56237914D02*
X95785714Y-56142676D01*
X95785714Y-56142676D02*
X95880952Y-56047438D01*
X95880952Y-56047438D02*
X96023809Y-55999819D01*
X96023809Y-55999819D02*
X96119047Y-55999819D01*
X96119047Y-55999819D02*
X96261904Y-56047438D01*
X96261904Y-56047438D02*
X96309523Y-56095057D01*
X97261904Y-56999819D02*
X96690476Y-56999819D01*
X96976190Y-56999819D02*
X96976190Y-55999819D01*
X96976190Y-55999819D02*
X96880952Y-56142676D01*
X96880952Y-56142676D02*
X96785714Y-56237914D01*
X96785714Y-56237914D02*
X96690476Y-56285533D01*
X122547618Y-38454819D02*
X122547618Y-37454819D01*
X122547618Y-38407200D02*
X122452380Y-38454819D01*
X122452380Y-38454819D02*
X122261904Y-38454819D01*
X122261904Y-38454819D02*
X122166666Y-38407200D01*
X122166666Y-38407200D02*
X122119047Y-38359580D01*
X122119047Y-38359580D02*
X122071428Y-38264342D01*
X122071428Y-38264342D02*
X122071428Y-37978628D01*
X122071428Y-37978628D02*
X122119047Y-37883390D01*
X122119047Y-37883390D02*
X122166666Y-37835771D01*
X122166666Y-37835771D02*
X122261904Y-37788152D01*
X122261904Y-37788152D02*
X122452380Y-37788152D01*
X122452380Y-37788152D02*
X122547618Y-37835771D01*
X123023809Y-38454819D02*
X123023809Y-37788152D01*
X123023809Y-37454819D02*
X122976190Y-37502438D01*
X122976190Y-37502438D02*
X123023809Y-37550057D01*
X123023809Y-37550057D02*
X123071428Y-37502438D01*
X123071428Y-37502438D02*
X123023809Y-37454819D01*
X123023809Y-37454819D02*
X123023809Y-37550057D01*
X123452380Y-38407200D02*
X123547618Y-38454819D01*
X123547618Y-38454819D02*
X123738094Y-38454819D01*
X123738094Y-38454819D02*
X123833332Y-38407200D01*
X123833332Y-38407200D02*
X123880951Y-38311961D01*
X123880951Y-38311961D02*
X123880951Y-38264342D01*
X123880951Y-38264342D02*
X123833332Y-38169104D01*
X123833332Y-38169104D02*
X123738094Y-38121485D01*
X123738094Y-38121485D02*
X123595237Y-38121485D01*
X123595237Y-38121485D02*
X123499999Y-38073866D01*
X123499999Y-38073866D02*
X123452380Y-37978628D01*
X123452380Y-37978628D02*
X123452380Y-37931009D01*
X123452380Y-37931009D02*
X123499999Y-37835771D01*
X123499999Y-37835771D02*
X123595237Y-37788152D01*
X123595237Y-37788152D02*
X123738094Y-37788152D01*
X123738094Y-37788152D02*
X123833332Y-37835771D01*
X124309523Y-37788152D02*
X124309523Y-38788152D01*
X124309523Y-37835771D02*
X124404761Y-37788152D01*
X124404761Y-37788152D02*
X124595237Y-37788152D01*
X124595237Y-37788152D02*
X124690475Y-37835771D01*
X124690475Y-37835771D02*
X124738094Y-37883390D01*
X124738094Y-37883390D02*
X124785713Y-37978628D01*
X124785713Y-37978628D02*
X124785713Y-38264342D01*
X124785713Y-38264342D02*
X124738094Y-38359580D01*
X124738094Y-38359580D02*
X124690475Y-38407200D01*
X124690475Y-38407200D02*
X124595237Y-38454819D01*
X124595237Y-38454819D02*
X124404761Y-38454819D01*
X124404761Y-38454819D02*
X124309523Y-38407200D01*
X125357142Y-38454819D02*
X125261904Y-38407200D01*
X125261904Y-38407200D02*
X125214285Y-38311961D01*
X125214285Y-38311961D02*
X125214285Y-37454819D01*
X126166666Y-38454819D02*
X126166666Y-37931009D01*
X126166666Y-37931009D02*
X126119047Y-37835771D01*
X126119047Y-37835771D02*
X126023809Y-37788152D01*
X126023809Y-37788152D02*
X125833333Y-37788152D01*
X125833333Y-37788152D02*
X125738095Y-37835771D01*
X126166666Y-38407200D02*
X126071428Y-38454819D01*
X126071428Y-38454819D02*
X125833333Y-38454819D01*
X125833333Y-38454819D02*
X125738095Y-38407200D01*
X125738095Y-38407200D02*
X125690476Y-38311961D01*
X125690476Y-38311961D02*
X125690476Y-38216723D01*
X125690476Y-38216723D02*
X125738095Y-38121485D01*
X125738095Y-38121485D02*
X125833333Y-38073866D01*
X125833333Y-38073866D02*
X126071428Y-38073866D01*
X126071428Y-38073866D02*
X126166666Y-38026247D01*
X126547619Y-37788152D02*
X126785714Y-38454819D01*
X127023809Y-37788152D02*
X126785714Y-38454819D01*
X126785714Y-38454819D02*
X126690476Y-38692914D01*
X126690476Y-38692914D02*
X126642857Y-38740533D01*
X126642857Y-38740533D02*
X126547619Y-38788152D01*
X127928571Y-38454819D02*
X127357143Y-38454819D01*
X127642857Y-38454819D02*
X127642857Y-37454819D01*
X127642857Y-37454819D02*
X127547619Y-37597676D01*
X127547619Y-37597676D02*
X127452381Y-37692914D01*
X127452381Y-37692914D02*
X127357143Y-37740533D01*
X89833333Y-62584819D02*
X89500000Y-62108628D01*
X89261905Y-62584819D02*
X89261905Y-61584819D01*
X89261905Y-61584819D02*
X89642857Y-61584819D01*
X89642857Y-61584819D02*
X89738095Y-61632438D01*
X89738095Y-61632438D02*
X89785714Y-61680057D01*
X89785714Y-61680057D02*
X89833333Y-61775295D01*
X89833333Y-61775295D02*
X89833333Y-61918152D01*
X89833333Y-61918152D02*
X89785714Y-62013390D01*
X89785714Y-62013390D02*
X89738095Y-62061009D01*
X89738095Y-62061009D02*
X89642857Y-62108628D01*
X89642857Y-62108628D02*
X89261905Y-62108628D01*
X90166667Y-61584819D02*
X90833333Y-61584819D01*
X90833333Y-61584819D02*
X90404762Y-62584819D01*
X78448333Y-52224819D02*
X78115000Y-51748628D01*
X77876905Y-52224819D02*
X77876905Y-51224819D01*
X77876905Y-51224819D02*
X78257857Y-51224819D01*
X78257857Y-51224819D02*
X78353095Y-51272438D01*
X78353095Y-51272438D02*
X78400714Y-51320057D01*
X78400714Y-51320057D02*
X78448333Y-51415295D01*
X78448333Y-51415295D02*
X78448333Y-51558152D01*
X78448333Y-51558152D02*
X78400714Y-51653390D01*
X78400714Y-51653390D02*
X78353095Y-51701009D01*
X78353095Y-51701009D02*
X78257857Y-51748628D01*
X78257857Y-51748628D02*
X77876905Y-51748628D01*
X78829286Y-51320057D02*
X78876905Y-51272438D01*
X78876905Y-51272438D02*
X78972143Y-51224819D01*
X78972143Y-51224819D02*
X79210238Y-51224819D01*
X79210238Y-51224819D02*
X79305476Y-51272438D01*
X79305476Y-51272438D02*
X79353095Y-51320057D01*
X79353095Y-51320057D02*
X79400714Y-51415295D01*
X79400714Y-51415295D02*
X79400714Y-51510533D01*
X79400714Y-51510533D02*
X79353095Y-51653390D01*
X79353095Y-51653390D02*
X78781667Y-52224819D01*
X78781667Y-52224819D02*
X79400714Y-52224819D01*
X103269819Y-64446904D02*
X104079342Y-64446904D01*
X104079342Y-64446904D02*
X104174580Y-64399285D01*
X104174580Y-64399285D02*
X104222200Y-64351666D01*
X104222200Y-64351666D02*
X104269819Y-64256428D01*
X104269819Y-64256428D02*
X104269819Y-64065952D01*
X104269819Y-64065952D02*
X104222200Y-63970714D01*
X104222200Y-63970714D02*
X104174580Y-63923095D01*
X104174580Y-63923095D02*
X104079342Y-63875476D01*
X104079342Y-63875476D02*
X103269819Y-63875476D01*
X104269819Y-62875476D02*
X104269819Y-63446904D01*
X104269819Y-63161190D02*
X103269819Y-63161190D01*
X103269819Y-63161190D02*
X103412676Y-63256428D01*
X103412676Y-63256428D02*
X103507914Y-63351666D01*
X103507914Y-63351666D02*
X103555533Y-63446904D01*
D11*
%TO.C,R6*%
X72850000Y-58570000D02*
X78850000Y-58570000D01*
X72850000Y-59430000D02*
X72850000Y-58570000D01*
X78850000Y-57620000D02*
X78850000Y-62920000D01*
X78850000Y-59430000D02*
X72850000Y-59430000D01*
X78850000Y-62920000D02*
X81610000Y-62920000D01*
X81610000Y-57620000D02*
X78850000Y-57620000D01*
X81610000Y-60270000D02*
X78850000Y-60270000D01*
X81610000Y-62920000D02*
X81610000Y-57620000D01*
X81840000Y-61110000D02*
X81610000Y-61110000D01*
X81840000Y-61970000D02*
X81610000Y-61970000D01*
X81922642Y-58570000D02*
X81610000Y-58570000D01*
X81922642Y-59430000D02*
X81610000Y-59430000D01*
X84270000Y-61540000D02*
X84270000Y-62810000D01*
X84270000Y-62810000D02*
X83000000Y-62810000D01*
X78850000Y-61970000D02*
X72850000Y-61970000D01*
X72850000Y-61110000D01*
X78850000Y-61110000D01*
X78850000Y-61970000D01*
G36*
X78850000Y-61970000D02*
G01*
X72850000Y-61970000D01*
X72850000Y-61110000D01*
X78850000Y-61110000D01*
X78850000Y-61970000D01*
G37*
%TO.C,M2*%
X103850000Y-25490000D02*
X109850000Y-25490000D01*
X103850000Y-26350000D02*
X103850000Y-25490000D01*
X103850000Y-28030000D02*
X109850000Y-28030000D01*
X103850000Y-28890000D02*
X103850000Y-28030000D01*
X109850000Y-24540000D02*
X109850000Y-32380000D01*
X109850000Y-26350000D02*
X103850000Y-26350000D01*
X109850000Y-28890000D02*
X103850000Y-28890000D01*
X109850000Y-32380000D02*
X112610000Y-32380000D01*
X112610000Y-24540000D02*
X109850000Y-24540000D01*
X112610000Y-27190000D02*
X109850000Y-27190000D01*
X112610000Y-29730000D02*
X109850000Y-29730000D01*
X112610000Y-32380000D02*
X112610000Y-24540000D01*
X112840000Y-30570000D02*
X112610000Y-30570000D01*
X112840000Y-31430000D02*
X112610000Y-31430000D01*
X112922642Y-25490000D02*
X112610000Y-25490000D01*
X112922642Y-26350000D02*
X112610000Y-26350000D01*
X112922642Y-28030000D02*
X112610000Y-28030000D01*
X112922642Y-28890000D02*
X112610000Y-28890000D01*
X115270000Y-31000000D02*
X115270000Y-32270000D01*
X115270000Y-32270000D02*
X114000000Y-32270000D01*
X109850000Y-31430000D02*
X103850000Y-31430000D01*
X103850000Y-30570000D01*
X109850000Y-30570000D01*
X109850000Y-31430000D01*
G36*
X109850000Y-31430000D02*
G01*
X103850000Y-31430000D01*
X103850000Y-30570000D01*
X109850000Y-30570000D01*
X109850000Y-31430000D01*
G37*
%TO.C,R8*%
X72850000Y-64570000D02*
X78850000Y-64570000D01*
X72850000Y-65430000D02*
X72850000Y-64570000D01*
X78850000Y-63620000D02*
X78850000Y-68920000D01*
X78850000Y-65430000D02*
X72850000Y-65430000D01*
X78850000Y-68920000D02*
X81610000Y-68920000D01*
X81610000Y-63620000D02*
X78850000Y-63620000D01*
X81610000Y-66270000D02*
X78850000Y-66270000D01*
X81610000Y-68920000D02*
X81610000Y-63620000D01*
X81840000Y-67110000D02*
X81610000Y-67110000D01*
X81840000Y-67970000D02*
X81610000Y-67970000D01*
X81922642Y-64570000D02*
X81610000Y-64570000D01*
X81922642Y-65430000D02*
X81610000Y-65430000D01*
X84270000Y-67540000D02*
X84270000Y-68810000D01*
X84270000Y-68810000D02*
X83000000Y-68810000D01*
X78850000Y-67970000D02*
X72850000Y-67970000D01*
X72850000Y-67110000D01*
X78850000Y-67110000D01*
X78850000Y-67970000D01*
G36*
X78850000Y-67970000D02*
G01*
X72850000Y-67970000D01*
X72850000Y-67110000D01*
X78850000Y-67110000D01*
X78850000Y-67970000D01*
G37*
%TO.C,R1*%
X102630000Y-53920000D02*
X102960000Y-53920000D01*
X102630000Y-60460000D02*
X102630000Y-53920000D01*
X102960000Y-60460000D02*
X102630000Y-60460000D01*
X105040000Y-60460000D02*
X105370000Y-60460000D01*
X105370000Y-53920000D02*
X105040000Y-53920000D01*
X105370000Y-60460000D02*
X105370000Y-53920000D01*
%TO.C,SW1*%
X94120000Y-26890000D02*
X94120000Y-29650000D01*
X94120000Y-29650000D02*
X99420000Y-29650000D01*
X95070000Y-26577358D02*
X95070000Y-26890000D01*
X95070000Y-35650000D02*
X95070000Y-29650000D01*
X95930000Y-26577358D02*
X95930000Y-26890000D01*
X95930000Y-29650000D02*
X95930000Y-35650000D01*
X95930000Y-35650000D02*
X95070000Y-35650000D01*
X96770000Y-26890000D02*
X96770000Y-29650000D01*
X97610000Y-26660000D02*
X97610000Y-26890000D01*
X98040000Y-24230000D02*
X99310000Y-24230000D01*
X98470000Y-26660000D02*
X98470000Y-26890000D01*
X99310000Y-24230000D02*
X99310000Y-25500000D01*
X99420000Y-26890000D02*
X94120000Y-26890000D01*
X99420000Y-29650000D02*
X99420000Y-26890000D01*
X98470000Y-29650000D02*
X97610000Y-29650000D01*
X97610000Y-35650000D01*
X98470000Y-35650000D01*
X98470000Y-29650000D01*
G36*
X98470000Y-29650000D02*
G01*
X97610000Y-29650000D01*
X97610000Y-35650000D01*
X98470000Y-35650000D01*
X98470000Y-29650000D01*
G37*
%TO.C,R3*%
X86730000Y-57130000D02*
X93270000Y-57130000D01*
X86730000Y-57460000D02*
X86730000Y-57130000D01*
X86730000Y-59540000D02*
X86730000Y-59870000D01*
X86730000Y-59870000D02*
X93270000Y-59870000D01*
X93270000Y-57130000D02*
X93270000Y-57460000D01*
X93270000Y-59870000D02*
X93270000Y-59540000D01*
%TO.C,R4*%
X72850000Y-52530000D02*
X78850000Y-52530000D01*
X72850000Y-53390000D02*
X72850000Y-52530000D01*
X78850000Y-51580000D02*
X78850000Y-56880000D01*
X78850000Y-53390000D02*
X72850000Y-53390000D01*
X78850000Y-56880000D02*
X81610000Y-56880000D01*
X81610000Y-51580000D02*
X78850000Y-51580000D01*
X81610000Y-54230000D02*
X78850000Y-54230000D01*
X81610000Y-56880000D02*
X81610000Y-51580000D01*
X81840000Y-55070000D02*
X81610000Y-55070000D01*
X81840000Y-55930000D02*
X81610000Y-55930000D01*
X81922642Y-52530000D02*
X81610000Y-52530000D01*
X81922642Y-53390000D02*
X81610000Y-53390000D01*
X84270000Y-55500000D02*
X84270000Y-56770000D01*
X84270000Y-56770000D02*
X83000000Y-56770000D01*
X78850000Y-55930000D02*
X72850000Y-55930000D01*
X72850000Y-55070000D01*
X78850000Y-55070000D01*
X78850000Y-55930000D01*
G36*
X78850000Y-55930000D02*
G01*
X72850000Y-55930000D01*
X72850000Y-55070000D01*
X78850000Y-55070000D01*
X78850000Y-55930000D01*
G37*
%TO.C,R9*%
X86730000Y-66130000D02*
X93270000Y-66130000D01*
X86730000Y-66460000D02*
X86730000Y-66130000D01*
X86730000Y-68540000D02*
X86730000Y-68870000D01*
X86730000Y-68870000D02*
X93270000Y-68870000D01*
X93270000Y-66130000D02*
X93270000Y-66460000D01*
X93270000Y-68870000D02*
X93270000Y-68540000D01*
%TO.C,BT1*%
X116345000Y-24455000D02*
X117615000Y-24455000D01*
X116345000Y-25725000D02*
X116345000Y-24455000D01*
X118692358Y-27835000D02*
X119005000Y-27835000D01*
X118692358Y-28695000D02*
X119005000Y-28695000D01*
X118775000Y-25295000D02*
X119005000Y-25295000D01*
X118775000Y-26155000D02*
X119005000Y-26155000D01*
X119005000Y-24345000D02*
X119005000Y-29645000D01*
X119005000Y-26995000D02*
X121765000Y-26995000D01*
X119005000Y-29645000D02*
X121765000Y-29645000D01*
X121765000Y-24345000D02*
X119005000Y-24345000D01*
X121765000Y-27835000D02*
X127765000Y-27835000D01*
X121765000Y-29645000D02*
X121765000Y-24345000D01*
X127765000Y-27835000D02*
X127765000Y-28695000D01*
X127765000Y-28695000D02*
X121765000Y-28695000D01*
X121765000Y-25295000D02*
X127765000Y-25295000D01*
X127765000Y-26155000D01*
X121765000Y-26155000D01*
X121765000Y-25295000D01*
G36*
X121765000Y-25295000D02*
G01*
X127765000Y-25295000D01*
X127765000Y-26155000D01*
X121765000Y-26155000D01*
X121765000Y-25295000D01*
G37*
%TO.C,R5*%
X86730000Y-60130000D02*
X93270000Y-60130000D01*
X86730000Y-60460000D02*
X86730000Y-60130000D01*
X86730000Y-62540000D02*
X86730000Y-62870000D01*
X86730000Y-62870000D02*
X93270000Y-62870000D01*
X93270000Y-60130000D02*
X93270000Y-60460000D01*
X93270000Y-62870000D02*
X93270000Y-62540000D01*
%TO.C,M1*%
X103850000Y-33990000D02*
X109850000Y-33990000D01*
X103850000Y-34850000D02*
X103850000Y-33990000D01*
X103850000Y-36530000D02*
X109850000Y-36530000D01*
X103850000Y-37390000D02*
X103850000Y-36530000D01*
X109850000Y-33040000D02*
X109850000Y-40880000D01*
X109850000Y-34850000D02*
X103850000Y-34850000D01*
X109850000Y-37390000D02*
X103850000Y-37390000D01*
X109850000Y-40880000D02*
X112610000Y-40880000D01*
X112610000Y-33040000D02*
X109850000Y-33040000D01*
X112610000Y-35690000D02*
X109850000Y-35690000D01*
X112610000Y-38230000D02*
X109850000Y-38230000D01*
X112610000Y-40880000D02*
X112610000Y-33040000D01*
X112840000Y-39070000D02*
X112610000Y-39070000D01*
X112840000Y-39930000D02*
X112610000Y-39930000D01*
X112922642Y-33990000D02*
X112610000Y-33990000D01*
X112922642Y-34850000D02*
X112610000Y-34850000D01*
X112922642Y-36530000D02*
X112610000Y-36530000D01*
X112922642Y-37390000D02*
X112610000Y-37390000D01*
X115270000Y-39500000D02*
X115270000Y-40770000D01*
X115270000Y-40770000D02*
X114000000Y-40770000D01*
X109850000Y-39930000D02*
X103850000Y-39930000D01*
X103850000Y-39070000D01*
X109850000Y-39070000D01*
X109850000Y-39930000D01*
G36*
X109850000Y-39930000D02*
G01*
X103850000Y-39930000D01*
X103850000Y-39070000D01*
X109850000Y-39070000D01*
X109850000Y-39930000D01*
G37*
%TO.C,SW2*%
X88080000Y-26890000D02*
X88080000Y-29650000D01*
X88080000Y-29650000D02*
X93380000Y-29650000D01*
X89030000Y-26577358D02*
X89030000Y-26890000D01*
X89030000Y-35650000D02*
X89030000Y-29650000D01*
X89890000Y-26577358D02*
X89890000Y-26890000D01*
X89890000Y-29650000D02*
X89890000Y-35650000D01*
X89890000Y-35650000D02*
X89030000Y-35650000D01*
X90730000Y-26890000D02*
X90730000Y-29650000D01*
X91570000Y-26660000D02*
X91570000Y-26890000D01*
X92000000Y-24230000D02*
X93270000Y-24230000D01*
X92430000Y-26660000D02*
X92430000Y-26890000D01*
X93270000Y-24230000D02*
X93270000Y-25500000D01*
X93380000Y-26890000D02*
X88080000Y-26890000D01*
X93380000Y-29650000D02*
X93380000Y-26890000D01*
X92430000Y-29650000D02*
X91570000Y-29650000D01*
X91570000Y-35650000D01*
X92430000Y-35650000D01*
X92430000Y-29650000D01*
G36*
X92430000Y-29650000D02*
G01*
X91570000Y-29650000D01*
X91570000Y-35650000D01*
X92430000Y-35650000D01*
X92430000Y-29650000D01*
G37*
%TO.C,SC1*%
X90235000Y-51305000D02*
X96235000Y-51305000D01*
X90235000Y-52165000D02*
X90235000Y-51305000D01*
X96235000Y-50355000D02*
X96235000Y-55655000D01*
X96235000Y-52165000D02*
X90235000Y-52165000D01*
X96235000Y-55655000D02*
X98995000Y-55655000D01*
X98995000Y-50355000D02*
X96235000Y-50355000D01*
X98995000Y-53005000D02*
X96235000Y-53005000D01*
X98995000Y-55655000D02*
X98995000Y-50355000D01*
X99225000Y-53845000D02*
X98995000Y-53845000D01*
X99225000Y-54705000D02*
X98995000Y-54705000D01*
X99307642Y-51305000D02*
X98995000Y-51305000D01*
X99307642Y-52165000D02*
X98995000Y-52165000D01*
X101655000Y-54275000D02*
X101655000Y-55545000D01*
X101655000Y-55545000D02*
X100385000Y-55545000D01*
X96235000Y-54705000D02*
X90235000Y-54705000D01*
X90235000Y-53845000D01*
X96235000Y-53845000D01*
X96235000Y-54705000D01*
G36*
X96235000Y-54705000D02*
G01*
X90235000Y-54705000D01*
X90235000Y-53845000D01*
X96235000Y-53845000D01*
X96235000Y-54705000D01*
G37*
%TO.C,display1*%
X116345000Y-30420000D02*
X117615000Y-30420000D01*
X116345000Y-31690000D02*
X116345000Y-30420000D01*
X118692358Y-33800000D02*
X119005000Y-33800000D01*
X118692358Y-34660000D02*
X119005000Y-34660000D01*
X118692358Y-36340000D02*
X119005000Y-36340000D01*
X118692358Y-37200000D02*
X119005000Y-37200000D01*
X118692358Y-38880000D02*
X119005000Y-38880000D01*
X118692358Y-39740000D02*
X119005000Y-39740000D01*
X118775000Y-31260000D02*
X119005000Y-31260000D01*
X118775000Y-32120000D02*
X119005000Y-32120000D01*
X119005000Y-30310000D02*
X119005000Y-40690000D01*
X119005000Y-32960000D02*
X121765000Y-32960000D01*
X119005000Y-35500000D02*
X121765000Y-35500000D01*
X119005000Y-38040000D02*
X121765000Y-38040000D01*
X119005000Y-40690000D02*
X121765000Y-40690000D01*
X121765000Y-30310000D02*
X119005000Y-30310000D01*
X121765000Y-33800000D02*
X127765000Y-33800000D01*
X121765000Y-36340000D02*
X127765000Y-36340000D01*
X121765000Y-38880000D02*
X127765000Y-38880000D01*
X121765000Y-40690000D02*
X121765000Y-30310000D01*
X127765000Y-33800000D02*
X127765000Y-34660000D01*
X127765000Y-34660000D02*
X121765000Y-34660000D01*
X127765000Y-36340000D02*
X127765000Y-37200000D01*
X127765000Y-37200000D02*
X121765000Y-37200000D01*
X127765000Y-38880000D02*
X127765000Y-39740000D01*
X127765000Y-39740000D02*
X121765000Y-39740000D01*
X121765000Y-31260000D02*
X127765000Y-31260000D01*
X127765000Y-32120000D01*
X121765000Y-32120000D01*
X121765000Y-31260000D01*
G36*
X121765000Y-31260000D02*
G01*
X127765000Y-31260000D01*
X127765000Y-32120000D01*
X121765000Y-32120000D01*
X121765000Y-31260000D01*
G37*
%TO.C,R7*%
X86730000Y-63130000D02*
X93270000Y-63130000D01*
X86730000Y-63460000D02*
X86730000Y-63130000D01*
X86730000Y-65540000D02*
X86730000Y-65870000D01*
X86730000Y-65870000D02*
X93270000Y-65870000D01*
X93270000Y-63130000D02*
X93270000Y-63460000D01*
X93270000Y-65870000D02*
X93270000Y-65540000D01*
%TO.C,R2*%
X72850000Y-46530000D02*
X78850000Y-46530000D01*
X72850000Y-47390000D02*
X72850000Y-46530000D01*
X78850000Y-45580000D02*
X78850000Y-50880000D01*
X78850000Y-47390000D02*
X72850000Y-47390000D01*
X78850000Y-50880000D02*
X81610000Y-50880000D01*
X81610000Y-45580000D02*
X78850000Y-45580000D01*
X81610000Y-48230000D02*
X78850000Y-48230000D01*
X81610000Y-50880000D02*
X81610000Y-45580000D01*
X81840000Y-49070000D02*
X81610000Y-49070000D01*
X81840000Y-49930000D02*
X81610000Y-49930000D01*
X81922642Y-46530000D02*
X81610000Y-46530000D01*
X81922642Y-47390000D02*
X81610000Y-47390000D01*
X84270000Y-49500000D02*
X84270000Y-50770000D01*
X84270000Y-50770000D02*
X83000000Y-50770000D01*
X78850000Y-49930000D02*
X72850000Y-49930000D01*
X72850000Y-49070000D01*
X78850000Y-49070000D01*
X78850000Y-49930000D01*
G36*
X78850000Y-49930000D02*
G01*
X72850000Y-49930000D01*
X72850000Y-49070000D01*
X78850000Y-49070000D01*
X78850000Y-49930000D01*
G37*
D12*
%TO.C,U1*%
X105720000Y-44000000D02*
X105720000Y-64320000D01*
X108260000Y-66860000D02*
X123500000Y-66860000D01*
X123500000Y-41460000D02*
X108260000Y-41460000D01*
X126040000Y-64320000D02*
X126040000Y-44000000D01*
X105720000Y-44000000D02*
G75*
G02*
X108260000Y-41460000I2540000J0D01*
G01*
X108260000Y-66860000D02*
G75*
G02*
X105720000Y-64320000I1J2540001D01*
G01*
X123500000Y-41460000D02*
G75*
G02*
X126040000Y-44000000I0J-2540000D01*
G01*
X126040000Y-64320000D02*
G75*
G02*
X123500000Y-66860000I-2540001J1D01*
G01*
D13*
X126820000Y-59960000D02*
G75*
G02*
X126620000Y-59960000I-100000J0D01*
G01*
X126620000Y-59960000D02*
G75*
G02*
X126820000Y-59960000I100000J0D01*
G01*
%TD*%
M02*
